<!DOCTYPE svg PUBLIC "-//W3C//DTD SVG 1.1//EN" "http://www.w3.org/Graphics/SVG/1.1/DTD/svg11.dtd">
<!-- Uploaded to: SVG Repo, www.svgrepo.com, Transformed by: SVG Repo Mixer Tools -->
<svg fill="#D4AF37" height="800px" width="800px" version="1.1" id="Layer_1" xmlns="http://www.w3.org/2000/svg" xmlns:xlink="http://www.w3.org/1999/xlink" viewBox="0 0 512 512" xml:space="preserve" stroke="#D4AF37">
<g id="SVGRepo_bgCarrier" stroke-width="0"/>
<g id="SVGRepo_tracerCarrier" stroke-linecap="round" stroke-linejoin="round"/>
<g id="SVGRepo_iconCarrier"> <g> <g> <g> <path d="M490.667,405.333v-42.667c0-35.285-28.715-64-64-64s-64,28.715-64,64v42.667H320v-42.667c0-35.285-28.715-64-64-64 s-64,28.715-64,64v42.667h-42.667v-42.667c0-35.285-28.715-64-64-64s-64,28.715-64,64v42.667C9.536,405.333,0,414.891,0,426.667 v64C0,502.443,9.536,512,21.333,512h469.333c11.797,0,21.333-9.557,21.333-21.333v-64 C512,414.891,502.464,405.333,490.667,405.333z M469.333,469.333H42.667V448H128h85.333h85.333H384h85.333V469.333z"/> <path d="M490.667,0H21.333C9.536,0,0,9.557,0,21.333v213.333C0,246.443,9.536,256,21.333,256h469.333 c11.797,0,21.333-9.557,21.333-21.333V21.333C512,9.557,502.464,0,490.667,0z M213.333,170.667V85.333L298.667,128 L213.333,170.667z"/> </g> </g> </g> </g>
</svg>